# xmcd
#
# Track frame offsets: 
#        150
#        13303
#        31167
#        42814
#        64959
#        83381
#        104602
#        118304
#        131103
#        145226
#        165336
#
# Disc length: 2411 seconds
#
# Revision: 0
# Processed by: cddbd v1.5.2PL0 Copyright (c) Steve Scherf et al.
# Submitted via: ExactAudioCopy v0.99pb4
#
DISCID=9309690b
DTITLE=Arsen Shomakhov - On The Move
DYEAR=2010
DGENRE=Blues
TTITLE0=Joker
TTITLE1=Something True Became a Lie
TTITLE2=She Split
TTITLE3=Sweeter Than Honey
TTITLE4=Jenny Q
TTITLE5=Big City Blues
TTITLE6=Swingy
TTITLE7=Hit and Run
TTITLE8=Georgia Slop
TTITLE9=When I Get Drunk
TTITLE10=On the Move
EXTD=
EXTT0=
EXTT1=
EXTT2=
EXTT3=
EXTT4=
EXTT5=
EXTT6=
EXTT7=
EXTT8=
EXTT9=
EXTT10=
PLAYORDER=
